<svg xmlns="http://www.w3.org/2000/svg"><polygon points="106.7619,131.19048 17.190475,96.809525 22.619047,71.47619 " style="fill:#cccccc;stroke:rgb(255,0,0);stroke-width:2"/><polygon points="106.7619,131.19048 22.619047,71.47619 34.38095,47.95238 " style="fill:#cccccc;stroke:rgb(255,0,0);stroke-width:2"/><polygon points="106.7619,131.19048 34.38095,47.95238 46.142857,39.809525 " style="fill:#cccccc;stroke:rgb(255,0,0);stroke-width:2"/><polygon points="106.7619,131.19048 147.06494,111.038956 46.142857,39.809525 " style="fill:#cccccc;stroke:rgb(255,0,0);stroke-width:2"/><polygon points="46.142857,39.809525 147.06494,111.038956 147.06494,99.70636 " style="fill:#cccccc;stroke:rgb(255,0,0);stroke-width:2"/><polygon points="106.7619,131.19048 147.06494,111.038956 106.7619,131.19048 " style="fill:#cccccc;stroke:rgb(255,0,0);stroke-width:2"/><polygon points="106.7619,131.19048 147.06494,111.038956 147.06494,111.038956 " style="fill:#cccccc;stroke:rgb(255,0,0);stroke-width:2"/><polygon points="17.190475,96.809525 50.24565,141.32382 106.7619,131.19048 " style="fill:#cccccc;stroke:rgb(255,0,0);stroke-width:2"/><polygon points="106.7619,131.19048 50.24565,141.32382 102.90158,141.32382 " style="fill:#cccccc;stroke:rgb(255,0,0);stroke-width:2"/><polygon points="17.190475,96.809525 50.24565,141.32382 17.190475,141.32382 " style="fill:#cccccc;stroke:rgb(255,0,0);stroke-width:2"/><polygon points="17.190475,96.809525 17.190475,141.32382 17.190475,96.809525 " style="fill:#cccccc;stroke:rgb(255,0,0);stroke-width:2"/><polygon points="17.190475,96.809525 17.190475,141.32382 17.190475,141.32382 " style="fill:#cccccc;stroke:rgb(255,0,0);stroke-width:2"/><polygon points="86.85714,14.47619 147.06494,59.18138 147.06494,14.1894865 " style="fill:#cccccc;stroke:rgb(255,0,0);stroke-width:2"/><polygon points="86.85714,14.47619 147.06494,59.18138 66.95238,20.809525 " style="fill:#cccccc;stroke:rgb(255,0,0);stroke-width:2"/><polygon points="66.95238,20.809525 147.06494,59.18138 147.06494,70.403015 " style="fill:#cccccc;stroke:rgb(255,0,0);stroke-width:2"/><polygon points="66.95238,20.809525 147.06494,70.403015 56.095238,32.57143 " style="fill:#cccccc;stroke:rgb(255,0,0);stroke-width:2"/><polygon points="56.095238,32.57143 147.06494,70.403015 147.06494,79.640335 " style="fill:#cccccc;stroke:rgb(255,0,0);stroke-width:2"/><polygon points="56.095238,32.57143 147.06494,79.640335 147.06494,79.640335 " style="fill:#cccccc;stroke:rgb(255,0,0);stroke-width:2"/><polygon points="157.42857,105.85714 147.06494,111.038956 147.06494,99.70637 " style="fill:#cccccc;stroke:rgb(0,255,0);stroke-width:2"/><polygon points="157.42857,105.85714 147.06494,111.038956 147.06494,111.038956 " style="fill:#cccccc;stroke:rgb(0,255,0);stroke-width:2"/><polygon points="237.95238,126.66667 276.9394,100.67532 276.85715,13.571429 " style="fill:#cccccc;stroke:rgb(0,255,0);stroke-width:2"/><polygon points="276.85715,13.571429 276.9394,100.67532 276.9394,14.082522 " style="fill:#cccccc;stroke:rgb(0,255,0);stroke-width:2"/><polygon points="237.95238,126.66667 147.06494,59.18139 276.85715,13.571429 " style="fill:#cccccc;stroke:rgb(0,255,0);stroke-width:2"/><polygon points="276.85715,13.571429 147.06494,59.18139 147.06494,14.1894865 " style="fill:#cccccc;stroke:rgb(0,255,0);stroke-width:2"/><polygon points="237.95238,126.66667 147.06494,59.18139 147.06494,70.403015 " style="fill:#cccccc;stroke:rgb(0,255,0);stroke-width:2"/><polygon points="237.95238,126.66667 147.06494,70.403015 147.06494,79.640335 " style="fill:#cccccc;stroke:rgb(0,255,0);stroke-width:2"/><polygon points="237.95238,126.66667 147.06494,79.640335 237.95238,126.66667 " style="fill:#cccccc;stroke:rgb(0,255,0);stroke-width:2"/><polygon points="237.95238,126.66667 147.06494,79.640335 147.06494,79.640335 " style="fill:#cccccc;stroke:rgb(0,255,0);stroke-width:2"/><polygon points="268.7143,139.33333 276.9394,132.0759 276.9394,135.49495 " style="fill:#cccccc;stroke:rgb(0,255,0);stroke-width:2"/><polygon points="268.7143,139.33333 276.9394,135.49495 276.9394,138.71645 " style="fill:#cccccc;stroke:rgb(0,255,0);stroke-width:2"/><polygon points="268.7143,139.33333 276.67627,141.32382 276.9394,138.71645 " style="fill:#cccccc;stroke:rgb(0,255,0);stroke-width:2"/><polygon points="276.9394,138.71645 276.67627,141.32382 276.9394,141.32382 " style="fill:#cccccc;stroke:rgb(0,255,0);stroke-width:2"/><polygon points="268.7143,139.33333 276.67627,141.32382 272.43726,141.32382 " style="fill:#cccccc;stroke:rgb(0,255,0);stroke-width:2"/><polygon points="268.7143,139.33333 272.43726,141.32382 271.02325,141.32382 " style="fill:#cccccc;stroke:rgb(0,255,0);stroke-width:2"/><polygon points="268.7143,139.33333 271.02325,141.32382 269.98297,141.32382 " style="fill:#cccccc;stroke:rgb(0,255,0);stroke-width:2"/><polygon points="268.7143,139.33333 269.98297,141.32382 269.3201,141.32382 " style="fill:#cccccc;stroke:rgb(0,255,0);stroke-width:2"/><polygon points="268.7143,139.33333 269.3201,141.32382 268.8674,141.32382 " style="fill:#cccccc;stroke:rgb(0,255,0);stroke-width:2"/><polygon points="268.7143,139.33333 268.8674,141.32382 268.27197,141.32382 " style="fill:#cccccc;stroke:rgb(0,255,0);stroke-width:2"/><polygon points="268.7143,139.33333 268.27197,141.32382 267.6195,141.32382 " style="fill:#cccccc;stroke:rgb(0,255,0);stroke-width:2"/><polygon points="268.7143,139.33333 267.6195,141.32382 268.7143,139.33333 " style="fill:#cccccc;stroke:rgb(0,255,0);stroke-width:2"/><polygon points="268.7143,139.33333 267.6195,141.32382 267.6195,141.32382 " style="fill:#cccccc;stroke:rgb(0,255,0);stroke-width:2"/><polygon points="85.04762,188.19048 102.5671,142.20183 50.24565,141.32382 " style="fill:#cccccc;stroke:rgb(0,0,255);stroke-width:2"/><polygon points="50.24565,141.32382 102.5671,142.20183 102.5671,141.32382 " style="fill:#cccccc;stroke:rgb(0,0,255);stroke-width:2"/><polygon points="85.04762,188.19048 50.24565,141.32382 17.190475,187.2857 " style="fill:#cccccc;stroke:rgb(0,0,255);stroke-width:2"/><polygon points="17.190475,187.2857 50.24565,141.32382 17.190475,141.32382 " style="fill:#cccccc;stroke:rgb(0,0,255);stroke-width:2"/><polygon points="17.190475,187.2857 17.190475,141.32382 17.190475,141.32382 " style="fill:#cccccc;stroke:rgb(0,0,255);stroke-width:2"/><polygon points="76.0,197.2381 102.5671,218.71014 16.285713,199.04762 " style="fill:#cccccc;stroke:rgb(0,0,255);stroke-width:2"/><polygon points="16.285713,199.04762 102.5671,218.71014 102.5671,234.4292 " style="fill:#cccccc;stroke:rgb(0,0,255);stroke-width:2"/><polygon points="16.285713,199.04762 102.5671,234.4292 15.380952,265.09525 " style="fill:#cccccc;stroke:rgb(0,0,255);stroke-width:2"/><polygon points="15.380952,265.09525 102.5671,234.4292 102.5671,255.1311 " style="fill:#cccccc;stroke:rgb(0,0,255);stroke-width:2"/><polygon points="15.380952,265.09525 102.5671,255.1311 26.238094,287.7143 " style="fill:#cccccc;stroke:rgb(0,0,255);stroke-width:2"/><polygon points="26.238094,287.7143 102.5671,255.1311 102.5671,263.26517 " style="fill:#cccccc;stroke:rgb(0,0,255);stroke-width:2"/><polygon points="26.238094,287.7143 102.5671,263.26517 45.238094,298.57144 " style="fill:#cccccc;stroke:rgb(0,0,255);stroke-width:2"/><polygon points="45.238094,298.57144 102.5671,263.26517 102.5671,270.17484 " style="fill:#cccccc;stroke:rgb(0,0,255);stroke-width:2"/><polygon points="45.238094,298.57144 102.5671,270.17484 102.5671,270.17484 " style="fill:#cccccc;stroke:rgb(0,0,255);stroke-width:2"/><polygon points="53.38095,314.85715 72.38095,328.42856 96.809525,332.9524 " style="fill:#cccccc;stroke:rgb(0,0,255);stroke-width:2"/><polygon points="53.38095,314.85715 102.5671,318.10913 96.809525,332.9524 " style="fill:#cccccc;stroke:rgb(0,0,255);stroke-width:2"/><polygon points="96.809525,332.9524 102.5671,318.10913 102.5671,332.83368 " style="fill:#cccccc;stroke:rgb(0,0,255);stroke-width:2"/><polygon points="53.38095,314.85715 102.5671,300.26962 102.5671,318.10913 " style="fill:#cccccc;stroke:rgb(0,0,255);stroke-width:2"/><polygon points="53.38095,314.85715 102.5671,300.26962 102.5671,288.02835 " style="fill:#cccccc;stroke:rgb(0,0,255);stroke-width:2"/><polygon points="53.38095,314.85715 102.5671,288.02835 53.38095,314.85715 " style="fill:#cccccc;stroke:rgb(0,0,255);stroke-width:2"/><polygon points="53.38095,314.85715 102.5671,288.02835 102.5671,288.02835 " style="fill:#cccccc;stroke:rgb(0,0,255);stroke-width:2"/><polygon points="142.04762,250.61905 125.294365,237.07875 109.02829,237.07875 " style="fill:#cccccc;stroke:rgb(255,255,0);stroke-width:2"/><polygon points="142.04762,250.61905 109.02829,237.07875 102.5671,255.1311 " style="fill:#cccccc;stroke:rgb(255,255,0);stroke-width:2"/><polygon points="102.5671,255.1311 109.02829,237.07875 102.5671,237.07875 " style="fill:#cccccc;stroke:rgb(255,255,0);stroke-width:2"/><polygon points="142.04762,250.61905 102.5671,255.1311 102.5671,263.26517 " style="fill:#cccccc;stroke:rgb(255,255,0);stroke-width:2"/><polygon points="142.04762,250.61905 102.5671,263.26517 102.5671,270.17484 " style="fill:#cccccc;stroke:rgb(255,255,0);stroke-width:2"/><polygon points="142.04762,250.61905 102.5671,270.17484 142.04762,250.61905 " style="fill:#cccccc;stroke:rgb(255,255,0);stroke-width:2"/><polygon points="142.04762,250.61905 102.5671,270.17484 102.5671,270.17484 " style="fill:#cccccc;stroke:rgb(255,255,0);stroke-width:2"/><polygon points="102.5671,318.10913 189.75325,323.8735 102.5671,332.83368 " style="fill:#cccccc;stroke:rgb(255,255,0);stroke-width:2"/><polygon points="102.5671,332.83368 189.75325,323.8735 189.75325,331.03604 " style="fill:#cccccc;stroke:rgb(255,255,0);stroke-width:2"/><polygon points="102.5671,300.26962 189.75325,274.4121 189.75325,315.19577 " style="fill:#cccccc;stroke:rgb(255,255,0);stroke-width:2"/><polygon points="102.5671,300.26962 189.75325,315.19577 102.5671,318.10913 " style="fill:#cccccc;stroke:rgb(255,255,0);stroke-width:2"/><polygon points="102.5671,318.10913 189.75325,315.19577 189.75325,323.8735 " style="fill:#cccccc;stroke:rgb(255,255,0);stroke-width:2"/><polygon points="102.5671,300.26962 189.75325,274.4121 189.75325,266.60138 " style="fill:#cccccc;stroke:rgb(255,255,0);stroke-width:2"/><polygon points="102.5671,300.26962 189.75325,266.60138 189.75325,245.08524 " style="fill:#cccccc;stroke:rgb(255,255,0);stroke-width:2"/><polygon points="102.5671,300.26962 189.75325,245.08524 102.5671,288.02832 " style="fill:#cccccc;stroke:rgb(255,255,0);stroke-width:2"/><polygon points="102.5671,288.02832 189.75325,245.08524 189.75325,243.53423 " style="fill:#cccccc;stroke:rgb(255,255,0);stroke-width:2"/><polygon points="102.5671,288.02832 189.75325,243.53423 189.75325,240.47226 " style="fill:#cccccc;stroke:rgb(255,255,0);stroke-width:2"/><polygon points="102.5671,288.02832 189.75325,240.47226 102.5671,288.02832 " style="fill:#cccccc;stroke:rgb(255,255,0);stroke-width:2"/><polygon points="102.5671,288.02832 189.75325,240.47226 189.75325,240.47226 " style="fill:#cccccc;stroke:rgb(255,255,0);stroke-width:2"/><polygon points="102.5671,288.02832 189.75325,240.47226 189.75325,240.47226 " style="fill:#cccccc;stroke:rgb(255,255,0);stroke-width:2"/><polygon points="272.33334,329.33334 189.75325,323.8735 189.75325,331.03604 " style="fill:#cccccc;stroke:rgb(255,0,255);stroke-width:2"/><polygon points="276.9394,248.55463 189.75325,274.4121 272.33334,329.33334 " style="fill:#cccccc;stroke:rgb(255,0,255);stroke-width:2"/><polygon points="272.33334,329.33334 189.75325,274.4121 189.75325,315.19577 " style="fill:#cccccc;stroke:rgb(255,0,255);stroke-width:2"/><polygon points="272.33334,329.33334 189.75325,315.19577 189.75325,323.8735 " style="fill:#cccccc;stroke:rgb(255,0,255);stroke-width:2"/><polygon points="272.33334,329.33334 276.9394,248.55463 276.9394,308.7158 " style="fill:#cccccc;stroke:rgb(255,0,255);stroke-width:2"/><polygon points="276.9394,248.55463 189.75325,274.4121 266.204,237.07875 " style="fill:#cccccc;stroke:rgb(255,0,255);stroke-width:2"/><polygon points="266.204,237.07875 189.75325,274.4121 189.75325,266.60138 " style="fill:#cccccc;stroke:rgb(255,0,255);stroke-width:2"/><polygon points="266.204,237.07875 189.75325,266.60138 202.40274,237.07875 " style="fill:#cccccc;stroke:rgb(255,0,255);stroke-width:2"/><polygon points="202.40274,237.07875 189.75325,266.60138 189.75325,245.08524 " style="fill:#cccccc;stroke:rgb(255,0,255);stroke-width:2"/><polygon points="202.40274,237.07875 189.75325,245.08524 189.75325,243.53423 " style="fill:#cccccc;stroke:rgb(255,0,255);stroke-width:2"/><polygon points="202.40274,237.07875 189.75325,243.53423 195.97467,237.07875 " style="fill:#cccccc;stroke:rgb(255,0,255);stroke-width:2"/><polygon points="195.97467,237.07875 189.75325,243.53423 189.75325,240.47226 " style="fill:#cccccc;stroke:rgb(255,0,255);stroke-width:2"/><polygon points="276.9394,248.55463 266.204,237.07875 276.9394,237.07875 " style="fill:#cccccc;stroke:rgb(255,0,255);stroke-width:2"/><polygon points="195.97467,237.07875 189.75325,240.47226 189.75325,240.47226 " style="fill:#cccccc;stroke:rgb(255,0,255);stroke-width:2"/><polygon points="195.97467,237.07875 189.75325,240.47226 195.97467,237.07875 " style="fill:#cccccc;stroke:rgb(255,0,255);stroke-width:2"/><polygon points="195.97467,237.07875 189.75325,240.47226 189.75325,240.47226 " style="fill:#cccccc;stroke:rgb(255,0,255);stroke-width:2"/><polygon points="289.5238,92.28571 276.9394,100.67532 276.9394,14.08252 " style="fill:#cccccc;stroke:rgb(0,255,255);stroke-width:2"/><polygon points="299.4762,89.57143 319.38095,88.666664 334.7619,17.190475 " style="fill:#cccccc;stroke:rgb(0,255,255);stroke-width:2"/><polygon points="299.4762,89.57143 334.7619,17.190475 288.61905,16.285713 " style="fill:#cccccc;stroke:rgb(0,255,255);stroke-width:2"/><polygon points="299.4762,89.57143 288.61905,16.285713 299.4762,89.57143 " style="fill:#cccccc;stroke:rgb(0,255,255);stroke-width:2"/><polygon points="377.2857,127.57143 325.7143,92.28571 345.61905,16.285713 " style="fill:#cccccc;stroke:rgb(0,255,255);stroke-width:2"/><polygon points="377.2857,127.57143 381.56274,124.46311 345.61905,16.285713 " style="fill:#cccccc;stroke:rgb(0,255,255);stroke-width:2"/><polygon points="345.61905,16.285713 381.56274,124.46311 381.56274,15.938431 " style="fill:#cccccc;stroke:rgb(0,255,255);stroke-width:2"/><polygon points="377.2857,127.57143 381.56274,124.46311 381.56274,125.35843 " style="fill:#cccccc;stroke:rgb(0,255,255);stroke-width:2"/><polygon points="377.2857,127.57143 381.56274,125.35843 381.56274,125.43291 " style="fill:#cccccc;stroke:rgb(0,255,255);stroke-width:2"/><polygon points="377.2857,127.57143 381.56274,125.43291 377.2857,127.57143 " style="fill:#cccccc;stroke:rgb(0,255,255);stroke-width:2"/><polygon points="377.2857,127.57143 381.56274,125.43291 381.56274,125.43291 " style="fill:#cccccc;stroke:rgb(0,255,255);stroke-width:2"/><polygon points="284.09525,125.7619 276.9394,132.0759 309.42856,120.33333 " style="fill:#cccccc;stroke:rgb(0,255,255);stroke-width:2"/><polygon points="309.42856,120.33333 276.9394,132.0759 276.9394,135.49495 " style="fill:#cccccc;stroke:rgb(0,255,255);stroke-width:2"/><polygon points="309.42856,120.33333 276.9394,135.49495 341.09525,133.90475 " style="fill:#cccccc;stroke:rgb(0,255,255);stroke-width:2"/><polygon points="341.09525,133.90475 276.9394,135.49495 276.9394,138.71645 " style="fill:#cccccc;stroke:rgb(0,255,255);stroke-width:2"/><polygon points="341.09525,133.90475 276.9394,138.71645 359.1905,161.95238 " style="fill:#cccccc;stroke:rgb(0,255,255);stroke-width:2"/><polygon points="359.1905,161.95238 276.9394,138.71645 276.9394,141.3896 " style="fill:#cccccc;stroke:rgb(0,255,255);stroke-width:2"/><polygon points="359.1905,161.95238 359.55807,172.61269 276.9394,141.3896 " style="fill:#cccccc;stroke:rgb(0,255,255);stroke-width:2"/><polygon points="276.9394,141.3896 359.55807,172.61269 332.4166,172.61269 " style="fill:#cccccc;stroke:rgb(0,255,255);stroke-width:2"/><polygon points="276.9394,141.3896 332.4166,172.61269 276.9394,143.7309 " style="fill:#cccccc;stroke:rgb(0,255,255);stroke-width:2"/><polygon points="276.9394,143.7309 332.4166,172.61269 330.959,172.61269 " style="fill:#cccccc;stroke:rgb(0,255,255);stroke-width:2"/><polygon points="276.9394,143.7309 330.959,172.61269 309.0205,172.61269 " style="fill:#cccccc;stroke:rgb(0,255,255);stroke-width:2"/><polygon points="276.9394,143.7309 309.0205,172.61269 276.9394,146.42393 " style="fill:#cccccc;stroke:rgb(0,255,255);stroke-width:2"/><polygon points="276.9394,146.42393 309.0205,172.61269 307.31833,172.61269 " style="fill:#cccccc;stroke:rgb(0,255,255);stroke-width:2"/><polygon points="276.9394,146.42393 307.31833,172.61269 292.34128,172.61269 " style="fill:#cccccc;stroke:rgb(0,255,255);stroke-width:2"/><polygon points="276.9394,146.42393 292.34128,172.61269 276.9394,152.23822 " style="fill:#cccccc;stroke:rgb(0,255,255);stroke-width:2"/><polygon points="276.9394,152.23822 292.34128,172.61269 289.92532,172.61269 " style="fill:#cccccc;stroke:rgb(0,255,255);stroke-width:2"/><polygon points="276.9394,152.23822 289.92532,172.61269 281.8954,172.61269 " style="fill:#cccccc;stroke:rgb(0,255,255);stroke-width:2"/><polygon points="276.9394,152.23822 281.8954,172.61269 276.9394,166.35867 " style="fill:#cccccc;stroke:rgb(0,255,255);stroke-width:2"/><polygon points="276.9394,166.35867 281.8954,172.61269 278.84277,172.61269 " style="fill:#cccccc;stroke:rgb(0,255,255);stroke-width:2"/><polygon points="276.9394,166.35867 278.84277,172.61269 276.9394,172.61269 " style="fill:#cccccc;stroke:rgb(0,255,255);stroke-width:2"/><polygon points="381.56274,124.46312 486.18613,48.428696 381.56274,15.938431 " style="fill:#cccccc;stroke:rgb(255,0,0);stroke-width:2"/><polygon points="381.56274,15.938431 486.18613,48.428696 486.18613,14.927577 " style="fill:#cccccc;stroke:rgb(255,0,0);stroke-width:2"/><polygon points="381.56274,124.46312 486.18613,48.428696 486.18613,70.85711 " style="fill:#cccccc;stroke:rgb(255,0,0);stroke-width:2"/><polygon points="381.56274,124.46312 486.18613,70.85711 381.56274,125.35843 " style="fill:#cccccc;stroke:rgb(255,0,0);stroke-width:2"/><polygon points="381.56274,125.35843 486.18613,70.85711 486.18613,71.22493 " style="fill:#cccccc;stroke:rgb(255,0,0);stroke-width:2"/><polygon points="381.56274,125.35843 486.18613,71.22493 486.18613,73.10149 " style="fill:#cccccc;stroke:rgb(255,0,0);stroke-width:2"/><polygon points="381.56274,125.35843 486.18613,73.10149 381.56274,125.43291 " style="fill:#cccccc;stroke:rgb(255,0,0);stroke-width:2"/><polygon points="381.56274,125.43291 486.18613,73.10149 486.18613,73.12121 " style="fill:#cccccc;stroke:rgb(255,0,0);stroke-width:2"/><polygon points="381.56274,125.43291 486.18613,73.12121 381.56274,125.43291 " style="fill:#cccccc;stroke:rgb(255,0,0);stroke-width:2"/><polygon points="381.56274,125.43291 486.18613,73.12121 486.18613,73.12121 " style="fill:#cccccc;stroke:rgb(255,0,0);stroke-width:2"/><polygon points="393.57144,171.90475 486.18613,162.18993 486.18613,95.877754 " style="fill:#cccccc;stroke:rgb(255,0,0);stroke-width:2"/><polygon points="393.57144,171.90475 486.18613,95.877754 385.42856,139.33333 " style="fill:#cccccc;stroke:rgb(255,0,0);stroke-width:2"/><polygon points="385.42856,139.33333 486.18613,95.877754 486.18613,87.193054 " style="fill:#cccccc;stroke:rgb(255,0,0);stroke-width:2"/><polygon points="393.57144,171.90475 385.42856,139.33333 393.57144,171.90475 " style="fill:#cccccc;stroke:rgb(255,0,0);stroke-width:2"/><polygon points="478.1152,172.61269 486.18613,170.04233 393.57144,171.90475 " style="fill:#cccccc;stroke:rgb(255,0,0);stroke-width:2"/><polygon points="393.57144,171.90475 486.18613,170.04233 486.18613,162.18993 " style="fill:#cccccc;stroke:rgb(255,0,0);stroke-width:2"/><polygon points="393.57144,171.90475 478.1152,172.61269 393.28827,172.61269 " style="fill:#cccccc;stroke:rgb(255,0,0);stroke-width:2"/><polygon points="478.1152,172.61269 486.18613,170.04233 486.18613,172.61269 " style="fill:#cccccc;stroke:rgb(255,0,0);stroke-width:2"/><polygon points="532.9048,14.47619 486.18613,48.428696 486.18613,14.927577 " style="fill:#cccccc;stroke:rgb(0,255,0);stroke-width:2"/><polygon points="532.9048,14.47619 486.18613,48.428696 559.1428,33.476192 " style="fill:#cccccc;stroke:rgb(0,255,0);stroke-width:2"/><polygon points="559.1428,33.476192 486.18613,48.428696 486.18613,70.8571 " style="fill:#cccccc;stroke:rgb(0,255,0);stroke-width:2"/><polygon points="559.1428,33.476192 486.18613,70.8571 486.18613,71.22493 " style="fill:#cccccc;stroke:rgb(0,255,0);stroke-width:2"/><polygon points="559.1428,33.476192 486.18613,71.22493 523.8571,54.285713 " style="fill:#cccccc;stroke:rgb(0,255,0);stroke-width:2"/><polygon points="523.8571,54.285713 486.18613,71.22493 486.18613,73.101494 " style="fill:#cccccc;stroke:rgb(0,255,0);stroke-width:2"/><polygon points="523.8571,54.285713 486.18613,73.101494 486.18613,73.12121 " style="fill:#cccccc;stroke:rgb(0,255,0);stroke-width:2"/><polygon points="523.8571,54.285713 486.18613,73.12121 486.18613,73.12121 " style="fill:#cccccc;stroke:rgb(0,255,0);stroke-width:2"/><polygon points="522.9524,158.33333 486.18613,162.18993 514.8095,72.38095 " style="fill:#cccccc;stroke:rgb(0,255,0);stroke-width:2"/><polygon points="514.8095,72.38095 486.18613,162.18993 486.18613,95.87776 " style="fill:#cccccc;stroke:rgb(0,255,0);stroke-width:2"/><polygon points="514.8095,72.38095 486.18613,95.87776 486.18613,87.193054 " style="fill:#cccccc;stroke:rgb(0,255,0);stroke-width:2"/><polygon points="522.9524,158.33333 486.18613,170.04233 486.18613,162.18993 " style="fill:#cccccc;stroke:rgb(0,255,0);stroke-width:2"/><polygon points="522.9524,158.33333 486.18613,170.04233 513.8379,172.61269 " style="fill:#cccccc;stroke:rgb(0,255,0);stroke-width:2"/><polygon points="513.8379,172.61269 486.18613,170.04233 486.18613,172.61269 " style="fill:#cccccc;stroke:rgb(0,255,0);stroke-width:2"/><polygon points="522.9524,158.33333 513.8379,172.61269 519.01324,172.61269 " style="fill:#cccccc;stroke:rgb(0,255,0);stroke-width:2"/><polygon points="522.9524,158.33333 519.01324,172.61269 522.9524,158.33333 " style="fill:#cccccc;stroke:rgb(0,255,0);stroke-width:2"/><polygon points="522.9524,158.33333 519.01324,172.61269 519.01324,172.61269 " style="fill:#cccccc;stroke:rgb(0,255,0);stroke-width:2"/><polygon points="586.2857,150.19048 557.03937,172.61269 585.7642,172.61269 " style="fill:#cccccc;stroke:rgb(0,255,0);stroke-width:2"/><polygon points="586.2857,150.19048 557.03937,172.61269 531.0952,152.0 " style="fill:#cccccc;stroke:rgb(0,255,0);stroke-width:2"/><polygon points="531.0952,152.0 557.03937,172.61269 531.5637,172.61269 " style="fill:#cccccc;stroke:rgb(0,255,0);stroke-width:2"/><polygon points="531.0952,152.0 531.5637,172.61269 531.5637,172.61269 " style="fill:#cccccc;stroke:rgb(0,255,0);stroke-width:2"/><polygon points="523.8571,67.85714 572.7143,39.809525 588.0952,58.809525 " style="fill:#cccccc;stroke:rgb(0,255,0);stroke-width:2"/><polygon points="523.8571,67.85714 588.0952,58.809525 590.8095,103.14286 " style="fill:#cccccc;stroke:rgb(0,255,0);stroke-width:2"/><polygon points="523.8571,67.85714 590.8095,103.14286 584.4762,141.14285 " style="fill:#cccccc;stroke:rgb(0,255,0);stroke-width:2"/><polygon points="523.8571,67.85714 584.4762,141.14285 531.0952,140.2381 " style="fill:#cccccc;stroke:rgb(0,255,0);stroke-width:2"/><polygon points="523.8571,67.85714 531.0952,140.2381 523.8571,67.85714 " style="fill:#cccccc;stroke:rgb(0,255,0);stroke-width:2"/><polygon points="291.33334,244.2857 276.9394,248.55464 276.9394,308.7158 " style="fill:#cccccc;stroke:rgb(0,0,255);stroke-width:2"/><polygon points="291.33334,244.2857 276.9394,248.55464 276.9394,234.68974 " style="fill:#cccccc;stroke:rgb(0,0,255);stroke-width:2"/><polygon points="298.57144,252.42857 324.8095,254.2381 332.9524,327.5238 " style="fill:#cccccc;stroke:rgb(0,0,255);stroke-width:2"/><polygon points="298.57144,252.42857 332.9524,327.5238 285.0,328.42856 " style="fill:#cccccc;stroke:rgb(0,0,255);stroke-width:2"/><polygon points="298.57144,252.42857 285.0,328.42856 298.57144,252.42857 " style="fill:#cccccc;stroke:rgb(0,0,255);stroke-width:2"/><polygon points="352.85715,325.7143 337.4762,248.80952 376.38095,214.42857 " style="fill:#cccccc;stroke:rgb(0,0,255);stroke-width:2"/><polygon points="352.85715,325.7143 380.35645,322.48666 376.38095,214.42857 " style="fill:#cccccc;stroke:rgb(0,0,255);stroke-width:2"/><polygon points="376.38095,214.42857 380.35645,322.48666 380.35645,216.512 " style="fill:#cccccc;stroke:rgb(0,0,255);stroke-width:2"/><polygon points="352.85715,325.7143 380.35645,322.48666 380.35645,326.10342 " style="fill:#cccccc;stroke:rgb(0,0,255);stroke-width:2"/><polygon points="352.85715,325.7143 380.35645,326.10342 380.35645,326.56918 " style="fill:#cccccc;stroke:rgb(0,0,255);stroke-width:2"/><polygon points="352.85715,325.7143 380.35645,326.56918 352.85715,325.7143 " style="fill:#cccccc;stroke:rgb(0,0,255);stroke-width:2"/><polygon points="352.85715,325.7143 380.35645,326.56918 380.35645,326.56918 " style="fill:#cccccc;stroke:rgb(0,0,255);stroke-width:2"/><polygon points="360.09525,188.19048 359.55807,172.61269 332.4166,172.61269 " style="fill:#cccccc;stroke:rgb(0,0,255);stroke-width:2"/><polygon points="360.09525,188.19048 332.4166,172.61269 330.959,172.61269 " style="fill:#cccccc;stroke:rgb(0,0,255);stroke-width:2"/><polygon points="360.09525,188.19048 330.959,172.61269 347.42856,207.19048 " style="fill:#cccccc;stroke:rgb(0,0,255);stroke-width:2"/><polygon points="347.42856,207.19048 330.959,172.61269 309.0205,172.61269 " style="fill:#cccccc;stroke:rgb(0,0,255);stroke-width:2"/><polygon points="347.42856,207.19048 309.0205,172.61269 307.31833,172.61269 " style="fill:#cccccc;stroke:rgb(0,0,255);stroke-width:2"/><polygon points="347.42856,207.19048 307.31833,172.61269 321.1905,221.66667 " style="fill:#cccccc;stroke:rgb(0,0,255);stroke-width:2"/><polygon points="321.1905,221.66667 307.31833,172.61269 292.34128,172.61269 " style="fill:#cccccc;stroke:rgb(0,0,255);stroke-width:2"/><polygon points="321.1905,221.66667 292.34128,172.61269 289.92532,172.61269 " style="fill:#cccccc;stroke:rgb(0,0,255);stroke-width:2"/><polygon points="321.1905,221.66667 289.92532,172.61269 294.0476,222.57143 " style="fill:#cccccc;stroke:rgb(0,0,255);stroke-width:2"/><polygon points="294.0476,222.57143 289.92532,172.61269 281.8954,172.61269 " style="fill:#cccccc;stroke:rgb(0,0,255);stroke-width:2"/><polygon points="294.0476,222.57143 281.8954,172.61269 278.84277,172.61269 " style="fill:#cccccc;stroke:rgb(0,0,255);stroke-width:2"/><polygon points="294.0476,222.57143 278.84277,172.61269 276.9394,211.68437 " style="fill:#cccccc;stroke:rgb(0,0,255);stroke-width:2"/><polygon points="276.9394,211.68437 278.84277,172.61269 276.9394,172.61269 " style="fill:#cccccc;stroke:rgb(0,0,255);stroke-width:2"/><polygon points="380.35645,322.48666 483.77347,310.3485 380.35645,216.512 " style="fill:#cccccc;stroke:rgb(255,255,0);stroke-width:2"/><polygon points="380.35645,216.512 483.77347,310.3485 483.77347,270.70917 " style="fill:#cccccc;stroke:rgb(255,255,0);stroke-width:2"/><polygon points="380.35645,322.48666 483.77347,310.3485 483.77347,326.2265 " style="fill:#cccccc;stroke:rgb(255,255,0);stroke-width:2"/><polygon points="380.35645,322.48666 483.77347,326.2265 380.35645,326.10342 " style="fill:#cccccc;stroke:rgb(255,255,0);stroke-width:2"/><polygon points="380.35645,326.10342 483.77347,326.2265 483.77347,327.56686 " style="fill:#cccccc;stroke:rgb(255,255,0);stroke-width:2"/><polygon points="380.35645,326.10342 483.77347,327.56686 483.77347,329.64587 " style="fill:#cccccc;stroke:rgb(255,255,0);stroke-width:2"/><polygon points="380.35645,326.10342 483.77347,329.64587 380.35645,326.56918 " style="fill:#cccccc;stroke:rgb(255,255,0);stroke-width:2"/><polygon points="380.35645,326.56918 483.77347,329.64587 483.77347,329.7842 " style="fill:#cccccc;stroke:rgb(255,255,0);stroke-width:2"/><polygon points="380.35645,326.56918 483.77347,329.7842 380.35645,326.56918 " style="fill:#cccccc;stroke:rgb(255,255,0);stroke-width:2"/><polygon points="380.35645,326.56918 483.77347,329.7842 483.77347,329.7842 " style="fill:#cccccc;stroke:rgb(255,255,0);stroke-width:2"/><polygon points="380.90475,203.57143 478.1152,172.61269 393.28827,172.61269 " style="fill:#cccccc;stroke:rgb(255,255,0);stroke-width:2"/><polygon points="380.90475,203.57143 478.1152,172.61269 468.66666,243.38095 " style="fill:#cccccc;stroke:rgb(255,255,0);stroke-width:2"/><polygon points="468.66666,243.38095 483.77347,219.71361 478.1152,172.61269 " style="fill:#cccccc;stroke:rgb(255,255,0);stroke-width:2"/><polygon points="478.1152,172.61269 483.77347,219.71361 483.77347,172.61269 " style="fill:#cccccc;stroke:rgb(255,255,0);stroke-width:2"/><polygon points="468.66666,243.38095 483.77347,219.71361 483.77347,231.02084 " style="fill:#cccccc;stroke:rgb(255,255,0);stroke-width:2"/><polygon points="477.7143,250.61905 483.77347,254.10767 483.77347,250.06822 " style="fill:#cccccc;stroke:rgb(255,255,0);stroke-width:2"/><polygon points="477.7143,250.61905 483.77347,250.06822 483.77347,245.63705 " style="fill:#cccccc;stroke:rgb(255,255,0);stroke-width:2"/><polygon points="477.7143,250.61905 483.77347,245.63705 477.7143,250.61905 " style="fill:#cccccc;stroke:rgb(255,255,0);stroke-width:2"/><polygon points="477.7143,250.61905 483.77347,245.63705 483.77347,245.63705 " style="fill:#cccccc;stroke:rgb(255,255,0);stroke-width:2"/><polygon points="545.5714,303.09525 483.77347,310.3485 483.77347,270.70917 " style="fill:#cccccc;stroke:rgb(255,0,255);stroke-width:2"/><polygon points="545.5714,303.09525 483.77347,310.3485 544.6667,328.42856 " style="fill:#cccccc;stroke:rgb(255,0,255);stroke-width:2"/><polygon points="544.6667,328.42856 483.77347,310.3485 483.77347,326.2265 " style="fill:#cccccc;stroke:rgb(255,0,255);stroke-width:2"/><polygon points="544.6667,328.42856 483.77347,326.2265 483.77347,327.56686 " style="fill:#cccccc;stroke:rgb(255,0,255);stroke-width:2"/><polygon points="544.6667,328.42856 483.77347,327.56686 527.4762,331.14285 " style="fill:#cccccc;stroke:rgb(255,0,255);stroke-width:2"/><polygon points="527.4762,331.14285 483.77347,327.56686 483.77347,329.64587 " style="fill:#cccccc;stroke:rgb(255,0,255);stroke-width:2"/><polygon points="527.4762,331.14285 483.77347,329.64587 483.77347,329.7842 " style="fill:#cccccc;stroke:rgb(255,0,255);stroke-width:2"/><polygon points="527.4762,331.14285 483.77347,329.7842 483.77347,329.7842 " style="fill:#cccccc;stroke:rgb(255,0,255);stroke-width:2"/><polygon points="513.8379,172.61269 483.77347,219.71361 483.77347,172.61269 " style="fill:#cccccc;stroke:rgb(255,0,255);stroke-width:2"/><polygon points="513.8379,172.61269 483.77347,219.71361 508.4762,210.80952 " style="fill:#cccccc;stroke:rgb(255,0,255);stroke-width:2"/><polygon points="508.4762,210.80952 483.77347,219.71361 483.77347,231.02084 " style="fill:#cccccc;stroke:rgb(255,0,255);stroke-width:2"/><polygon points="508.4762,210.80952 513.8379,172.61269 519.01324,172.61269 " style="fill:#cccccc;stroke:rgb(255,0,255);stroke-width:2"/><polygon points="508.4762,210.80952 519.01324,172.61269 519.01324,172.61269 " style="fill:#cccccc;stroke:rgb(255,0,255);stroke-width:2"/><polygon points="532.0,191.80952 557.03937,172.61269 585.3809,189.09525 " style="fill:#cccccc;stroke:rgb(255,0,255);stroke-width:2"/><polygon points="585.3809,189.09525 557.03937,172.61269 585.7642,172.61269 " style="fill:#cccccc;stroke:rgb(255,0,255);stroke-width:2"/><polygon points="532.0,191.80952 557.03937,172.61269 531.5637,172.61269 " style="fill:#cccccc;stroke:rgb(255,0,255);stroke-width:2"/><polygon points="532.0,191.80952 531.5637,172.61269 532.0,191.80952 " style="fill:#cccccc;stroke:rgb(255,0,255);stroke-width:2"/><polygon points="532.0,191.80952 531.5637,172.61269 531.5637,172.61269 " style="fill:#cccccc;stroke:rgb(255,0,255);stroke-width:2"/><polygon points="528.3809,251.5238 587.1905,257.85715 579.9524,285.90475 " style="fill:#cccccc;stroke:rgb(255,0,255);stroke-width:2"/><polygon points="528.3809,251.5238 579.9524,285.90475 560.9524,300.38095 " style="fill:#cccccc;stroke:rgb(255,0,255);stroke-width:2"/><polygon points="528.3809,251.5238 560.9524,300.38095 517.5238,273.2381 " style="fill:#cccccc;stroke:rgb(255,0,255);stroke-width:2"/><polygon points="528.3809,251.5238 517.5238,273.2381 528.3809,251.5238 " style="fill:#cccccc;stroke:rgb(255,0,255);stroke-width:2"/><polygon points="587.1905,257.85715 528.3809,251.5238 532.0,199.04762 " style="fill:#cccccc;stroke:rgb(255,0,255);stroke-width:2"/><polygon points="587.1905,257.85715 532.0,199.04762 587.1905,197.2381 " style="fill:#cccccc;stroke:rgb(255,0,255);stroke-width:2"/><polygon points="587.1905,257.85715 587.1905,197.2381 587.1905,257.85715 " style="fill:#cccccc;stroke:rgb(255,0,255);stroke-width:2"/><polygon points="507.57144,267.8095 483.77347,254.10767 517.5238,247.0 " style="fill:#cccccc;stroke:rgb(255,0,255);stroke-width:2"/><polygon points="517.5238,247.0 483.77347,254.10767 483.77347,250.06822 " style="fill:#cccccc;stroke:rgb(255,0,255);stroke-width:2"/><polygon points="517.5238,247.0 483.77347,250.06822 518.4286,217.14285 " style="fill:#cccccc;stroke:rgb(255,0,255);stroke-width:2"/><polygon points="518.4286,217.14285 483.77347,250.06822 483.77347,245.63705 " style="fill:#cccccc;stroke:rgb(255,0,255);stroke-width:2"/><polygon points="518.4286,217.14285 483.77347,245.63705 483.77347,245.63705 " style="fill:#cccccc;stroke:rgb(255,0,255);stroke-width:2"/></svg>