<svg xmlns="http://www.w3.org/2000/svg"><polygon points="146.16017,284.9562 233.34631,284.0574 " style="fill:#cccccc;stroke:rgb(150,0,105);stroke-width:2"/><polygon points="233.34631,284.0574 146.16017,284.9562 " style="fill:#cccccc;stroke:rgb(150,0,105);stroke-width:2"/><polygon points="233.34631,284.0574 324.8095,254.2381 " style="fill:#cccccc;stroke:rgb(120,0,135);stroke-width:2"/><polygon points="324.8095,254.2381 233.34631,284.0574 " style="fill:#cccccc;stroke:rgb(120,0,135);stroke-width:2"/><polygon points="58.974026,237.1381 146.16017,284.9562 " style="fill:#cccccc;stroke:rgb(210,0,45);stroke-width:2"/><polygon points="146.16017,284.9562 58.974026,237.1381 " style="fill:#cccccc;stroke:rgb(210,0,45);stroke-width:2"/><polygon points="432.06494,251.19846 535.482,251.87778 " style="fill:#cccccc;stroke:rgb(120,0,135);stroke-width:2"/><polygon points="535.482,251.87778 432.06494,251.19846 " style="fill:#cccccc;stroke:rgb(120,0,135);stroke-width:2"/><polygon points="433.87445,93.770134 538.4978,93.54444 " style="fill:#cccccc;stroke:rgb(120,0,135);stroke-width:2"/><polygon points="538.4978,93.54444 433.87445,93.770134 " style="fill:#cccccc;stroke:rgb(120,0,135);stroke-width:2"/><polygon points="329.25107,93.3476 433.87445,93.770134 " style="fill:#cccccc;stroke:rgb(90,0,165);stroke-width:2"/><polygon points="433.87445,93.770134 329.25107,93.3476 " style="fill:#cccccc;stroke:rgb(90,0,165);stroke-width:2"/><polygon points="324.8095,254.2381 432.06494,251.19846 " style="fill:#cccccc;stroke:rgb(30,0,225);stroke-width:2"/><polygon points="432.06494,251.19846 324.8095,254.2381 " style="fill:#cccccc;stroke:rgb(30,0,225);stroke-width:2"/><polygon points="212.00217,77.447624 329.25107,93.3476 " style="fill:#cccccc;stroke:rgb(90,0,165);stroke-width:2"/><polygon points="329.25107,93.3476 212.00217,77.447624 " style="fill:#cccccc;stroke:rgb(90,0,165);stroke-width:2"/><polygon points="82.12771,77.75665 212.00217,77.447624 " style="fill:#cccccc;stroke:rgb(60,0,195);stroke-width:2"/><polygon points="212.00217,77.447624 82.12771,77.75665 " style="fill:#cccccc;stroke:rgb(60,0,195);stroke-width:2"/><polygon points="433.87445,93.770134 432.06494,251.19846 " style="fill:#cccccc;stroke:rgb(60,0,195);stroke-width:2"/><polygon points="432.06494,251.19846 433.87445,93.770134 " style="fill:#cccccc;stroke:rgb(60,0,195);stroke-width:2"/><polygon points="538.4978,93.54444 535.482,251.87778 " style="fill:#cccccc;stroke:rgb(180,0,75);stroke-width:2"/><polygon points="535.482,251.87778 538.4978,93.54444 " style="fill:#cccccc;stroke:rgb(180,0,75);stroke-width:2"/><polygon points="329.25107,93.3476 324.8095,254.2381 " style="fill:#cccccc;stroke:rgb(60,0,195);stroke-width:2"/><polygon points="324.8095,254.2381 329.25107,93.3476 " style="fill:#cccccc;stroke:rgb(60,0,195);stroke-width:2"/><polygon points="82.12771,77.75665 58.974026,237.1381 " style="fill:#cccccc;stroke:rgb(90,0,165);stroke-width:2"/><polygon points="58.974026,237.1381 82.12771,77.75665 " style="fill:#cccccc;stroke:rgb(90,0,165);stroke-width:2"/><polygon points="58.974026,237.1381 233.34631,284.0574 " style="fill:#cccccc;stroke:rgb(150,0,105);stroke-width:2"/><polygon points="233.34631,284.0574 58.974026,237.1381 " style="fill:#cccccc;stroke:rgb(150,0,105);stroke-width:2"/><polygon points="146.16017,284.9562 324.8095,254.2381 " style="fill:#cccccc;stroke:rgb(180,0,75);stroke-width:2"/><polygon points="324.8095,254.2381 146.16017,284.9562 " style="fill:#cccccc;stroke:rgb(180,0,75);stroke-width:2"/><polygon points="433.87445,93.770134 535.482,251.87778 " style="fill:#cccccc;stroke:rgb(120,0,135);stroke-width:2"/><polygon points="535.482,251.87778 433.87445,93.770134 " style="fill:#cccccc;stroke:rgb(120,0,135);stroke-width:2"/><polygon points="329.25107,93.3476 432.06494,251.19846 " style="fill:#cccccc;stroke:rgb(90,0,165);stroke-width:2"/><polygon points="432.06494,251.19846 329.25107,93.3476 " style="fill:#cccccc;stroke:rgb(90,0,165);stroke-width:2"/><polygon points="538.4978,93.54444 432.06494,251.19846 " style="fill:#cccccc;stroke:rgb(240,0,15);stroke-width:2"/><polygon points="432.06494,251.19846 538.4978,93.54444 " style="fill:#cccccc;stroke:rgb(240,0,15);stroke-width:2"/><polygon points="433.87445,93.770134 324.8095,254.2381 " style="fill:#cccccc;stroke:rgb(60,0,195);stroke-width:2"/><polygon points="324.8095,254.2381 433.87445,93.770134 " style="fill:#cccccc;stroke:rgb(60,0,195);stroke-width:2"/><polygon points="233.34631,284.0574 432.06494,251.19846 " style="fill:#cccccc;stroke:rgb(120,0,135);stroke-width:2"/><polygon points="432.06494,251.19846 233.34631,284.0574 " style="fill:#cccccc;stroke:rgb(120,0,135);stroke-width:2"/><polygon points="212.00217,77.447624 233.34631,284.0574 " style="fill:#cccccc;stroke:rgb(60,0,195);stroke-width:2"/><polygon points="233.34631,284.0574 212.00217,77.447624 " style="fill:#cccccc;stroke:rgb(60,0,195);stroke-width:2"/><polygon points="329.25107,93.3476 538.4978,93.54444 " style="fill:#cccccc;stroke:rgb(120,0,135);stroke-width:2"/><polygon points="538.4978,93.54444 329.25107,93.3476 " style="fill:#cccccc;stroke:rgb(120,0,135);stroke-width:2"/></svg>